# xmcd
#
# Track frame offsets: 
#        150
#        18332
#        39510
#        63142
#        80977
#        98662
#        113435
#        135675
#        153010
#        178384
#        206635
#        232292
#        262817
#        286512
#
# Disc length: 4045 seconds
#
# Revision: 2
# Processed by: cddbd v1.4PL0 Copyright (c) Steve Scherf et al.
# Submitted via: ExactAudioCopy v0.90b4
#
DISCID=b50fcb0e
DTITLE=Elton John - The Very Best Of [CD1]
DYEAR=1900
DGENRE=
TTITLE0=Your Song
TTITLE1=Rocket Man (I Think It's Going to Be a Long, Long Time)
TTITLE2=Honky Cat
TTITLE3=Crocodile Rock
TTITLE4=Daniel
TTITLE5=Goodbye Yellow Brick Road
TTITLE6=Saturday Night's Alright for Fighting
TTITLE7=Candle in the Wind
TTITLE8=Don't Let the Sun Go Down on Me
TTITLE9=Lucy in the Sky with Diamonds
TTITLE10=Philadelphia Freedom
TTITLE11=Someone Saved my Life Tonight
TTITLE12=Pinball Wizard
TTITLE13=The Bitch Is Back
EXTD=
EXTT0=
EXTT1=
EXTT2=
EXTT3=
EXTT4=
EXTT5=
EXTT6=
EXTT7=
EXTT8=
EXTT9=
EXTT10=
EXTT11=
EXTT12=
EXTT13=
PLAYORDER=
